<svg width="1217" height="388" viewBox="0 0 1217 388" fill="none" xmlns="http://www.w3.org/2000/svg">
<path d="M60.4548 189.963C57.2855 180.592 64.2541 170.879 74.1459 170.879H213.454C219.652 170.879 225.16 174.83 227.146 180.701L258.921 274.646C262.09 284.016 255.122 293.73 245.23 293.73H105.921C99.7238 293.73 94.216 289.779 92.2303 283.908L60.4548 189.963Z" fill="#DB62FD" fill-opacity="0.8"/>
<path d="M82.1345 153.83C78.9651 144.46 85.9338 134.746 95.8256 134.746H235.134C241.332 134.746 246.84 138.697 248.825 144.568L280.601 238.513C283.77 247.884 276.802 257.597 266.91 257.597H127.601C121.404 257.597 115.896 253.646 113.91 247.775L82.1345 153.83Z" fill="#35CEF9" fill-opacity="0.7"/>
<path d="M120.074 114.084C116.904 104.714 123.873 95 133.765 95H273.073C279.271 95 284.779 98.9514 286.765 104.822L318.54 198.767C321.709 208.137 314.741 217.851 304.849 217.851H165.54C159.343 217.851 153.835 213.9 151.849 208.029L120.074 114.084Z" fill="#3C38EF" fill-opacity="0.7"/>
<path d="M511.35 204.534L524.085 204.354V211.708C522.65 211.469 520.976 211.35 519.063 211.35C517.15 211.35 514.997 211.469 512.606 211.708C512.606 220.916 508.181 230.244 499.332 239.691C490.483 249.138 479.78 256.791 467.224 262.65C454.788 268.629 443.188 271.619 432.426 271.619C426.806 271.619 422.202 270.184 418.614 267.314C415.146 264.444 413.413 260.677 413.413 256.013C413.413 249.078 418.016 241.843 427.224 234.309C436.432 226.776 447.194 220.558 459.511 215.655C471.828 210.752 482.949 207.882 492.875 207.045C491.679 205.251 489.825 203.696 487.314 202.381C484.803 201.066 479.661 199.033 471.888 196.282C464.115 193.412 458.614 190.303 455.386 186.955C452.157 183.487 450.543 178.644 450.543 172.426C450.543 166.208 453.891 159.092 460.588 151.081C467.284 143.069 475.177 136.372 484.265 130.991C493.473 125.49 501.544 122.74 508.48 122.74C511.589 122.74 514.16 123.876 516.193 126.148C518.226 128.3 519.242 130.991 519.242 134.219C519.242 139.481 516.073 146.118 509.736 154.13C503.398 162.022 496.342 168.061 488.57 172.246L484.265 166.148C488.928 163.756 492.994 160.049 496.462 155.027C500.05 149.885 501.843 145.46 501.843 141.753C501.843 138.046 499.87 136.193 495.924 136.193C490.304 136.193 483.846 139.72 476.552 146.776C469.377 153.711 465.789 160.229 465.789 166.327C465.789 170.513 466.866 173.801 469.018 176.193C471.171 178.584 476.612 181.574 485.341 185.161C494.07 188.629 500.289 191.738 503.996 194.489C507.703 197.119 510.154 200.468 511.35 204.534ZM431.35 251.35C431.35 257.09 436.013 259.96 445.341 259.96C450.483 259.96 457.12 258.046 465.251 254.22C473.502 250.513 480.737 245.251 486.955 238.435C493.293 231.738 496.462 224.862 496.462 217.807C496.462 216.97 496.283 215.714 495.924 214.04C479.541 215.595 464.653 220.199 451.26 227.852C437.987 235.505 431.35 243.338 431.35 251.35ZM573.225 216.91L577.171 221.395C574.182 226.058 570.535 229.706 566.23 232.336C562.044 234.967 557.799 236.283 553.494 236.283C549.189 236.283 545.781 235.087 543.27 232.695C540.759 230.184 539.503 226.776 539.503 222.471C539.503 212.426 543.27 198.554 550.804 180.856C544.705 181.813 538.606 183.248 532.508 185.161L531.252 178.166L531.073 177.986C537.052 175.475 544.884 173.442 554.57 171.888C555.527 170.094 557.68 165.729 561.028 158.794C567.724 145.042 572.508 136.133 575.378 132.067L583.091 135.116C581.895 137.747 579.802 142.172 576.813 148.39C573.823 154.489 570.475 161.424 566.768 169.197C572.149 168.838 576.394 168.659 579.503 168.659C582.612 168.659 585.004 169.137 586.678 170.094V177.807C585.004 177.448 582.553 177.269 579.324 177.269C576.215 177.269 570.594 177.807 562.463 178.883C555.407 194.668 551.88 206.148 551.88 213.323C551.88 216.073 552.717 218.345 554.391 220.139C556.185 221.933 558.517 222.83 561.387 222.83C564.376 222.83 568.322 220.856 573.225 216.91ZM662.387 217.269L666.154 220.318C664.121 225.341 660.893 229.586 656.468 233.054C652.163 236.522 648.217 238.256 644.629 238.256C641.162 238.256 638.411 237.06 636.378 234.668C634.345 232.157 633.329 228.928 633.329 224.982C633.329 221.036 633.987 215.954 635.302 209.735C629.682 218.584 623.643 225.52 617.185 230.543C610.728 235.565 605.287 238.076 600.863 238.076C594.166 238.076 590.818 233.293 590.818 223.726C590.818 215.595 593.568 205.191 599.069 192.516C604.57 179.84 608.576 172.486 611.087 170.453L619.697 174.22C614.794 182.112 611.087 189.885 608.576 197.538C606.064 205.191 604.809 210.333 604.809 212.964C604.809 215.475 605.586 217.508 607.141 219.063C608.815 220.617 610.728 221.395 612.88 221.395C617.664 221.395 623.583 217.03 630.638 208.3C637.813 199.451 645.108 186.297 652.522 168.838L661.67 172.964C661.431 173.921 658.68 180.856 653.419 193.771C648.277 206.686 645.706 214.459 645.706 217.09C645.706 219.601 646.244 221.514 647.32 222.83C648.516 224.145 649.652 224.803 650.728 224.803C651.924 224.803 652.821 224.743 653.419 224.623C654.017 224.504 654.615 224.265 655.212 223.906C655.81 223.547 656.289 223.248 656.647 223.009C657.126 222.77 657.664 222.351 658.262 221.753L659.697 220.498C659.936 220.139 660.354 219.601 660.952 218.883C661.67 218.046 662.148 217.508 662.387 217.269ZM770.626 104.444L779.774 107.672L777.263 112.336C764.109 136.85 752.928 160.587 743.72 183.547C737.622 198.614 734.572 209.915 734.572 217.448C734.572 219.362 735.051 220.916 736.007 222.112C736.964 223.188 738.459 223.726 740.492 223.726C742.644 223.726 745.095 222.351 747.846 219.601L751.075 222.65C749.52 226.118 746.829 229.347 743.003 232.336C739.176 235.206 735.469 236.641 731.882 236.641C724.946 236.641 721.478 232.575 721.478 224.444C721.478 219.661 722.793 212.306 725.424 202.381C711.314 227.015 697.502 239.332 683.989 239.332C679.325 239.332 675.618 237.897 672.868 235.027C670.118 232.157 668.742 228.271 668.742 223.368C668.742 215.595 671.852 207.523 678.07 199.152C684.288 190.782 691.941 183.965 701.03 178.704C710.118 173.323 718.608 170.632 726.5 170.632L727.039 176.91C716.755 178.226 707.128 182.71 698.16 190.363C689.311 197.897 684.886 205.61 684.886 213.502C684.886 216.85 685.783 219.541 687.577 221.574C689.37 223.487 691.702 224.444 694.572 224.444C700.432 224.444 708.085 218.166 717.532 205.61C721 201.066 724.946 194.429 729.37 185.699C733.915 176.97 737.502 169.974 740.133 164.713C742.883 159.332 745.514 154.13 748.025 149.107C750.656 143.965 754.064 137.269 758.249 129.018C762.435 120.647 766.56 112.456 770.626 104.444ZM843.379 225.7L843.917 230.363C843.438 230.722 837.878 232.874 827.235 236.821C825.8 244.713 823.947 252.486 821.674 260.139C819.522 267.912 817.31 273.771 815.038 277.718C812.885 281.783 810.314 285.789 807.325 289.736C801.346 297.628 793.274 301.574 783.109 301.574C778.087 301.574 774.081 300.02 771.091 296.91C768.102 293.801 766.607 289.556 766.607 284.175C766.607 263.487 783.946 246.865 818.625 234.309L828.311 200.229C818.027 215.655 808.76 225.161 800.508 228.749C796.443 230.662 792.138 231.619 787.594 231.619C783.169 231.619 779.582 230.184 776.831 227.314C774.201 224.444 772.885 220.259 772.885 214.758C772.885 209.257 774.739 201.604 778.446 191.798C782.272 181.873 786.517 173.562 791.181 166.865L799.97 170.632C799.612 170.991 797.937 174.16 794.948 180.139C789.686 191.021 787.056 199.093 787.056 204.354C787.056 209.616 788.072 213.143 790.105 214.937C792.138 216.731 795.127 217.628 799.074 217.628C803.02 217.628 807.444 215.296 812.347 210.632C817.37 205.849 825.083 196.462 835.486 182.471L841.944 186.238C840.987 190.184 838.834 197.359 835.486 207.762C832.257 218.046 830.045 225.939 828.849 231.439L843.379 225.7ZM817.549 239.691C810.015 243.158 803.378 247.105 797.639 251.529C786.876 259.661 781.495 267.553 781.495 275.206C781.495 278.076 782.332 280.408 784.006 282.202C785.68 283.996 787.773 284.892 790.284 284.892C802.242 284.892 811.331 269.825 817.549 239.691ZM882.154 187.673C887.894 181.813 892.916 177.807 897.221 175.655C901.646 173.383 905.771 172.246 909.598 172.246C913.544 172.246 916.773 173.622 919.284 176.372C921.915 179.003 923.23 182.471 923.23 186.776C923.23 197.897 918.566 209.616 909.239 221.933C899.912 234.13 889.867 240.229 879.105 240.229C875.876 240.229 872.826 239.631 869.956 238.435L874.261 230.543C876.175 231.021 877.67 231.26 878.746 231.26C886.04 231.26 892.677 227.194 898.656 219.063C904.635 210.931 907.625 202.919 907.625 195.027C907.625 192.516 906.788 190.483 905.114 188.928C903.559 187.254 901.526 186.417 899.015 186.417C893.514 186.417 887.057 190.841 879.643 199.69C872.348 208.54 865.951 220.079 860.45 234.309L849.508 229.825C853.095 211.529 860.27 189.227 871.033 162.919C881.795 136.611 890.764 118.016 897.939 107.134L907.087 110.363C899.194 125.071 890.764 143.308 881.795 165.072C872.946 186.835 867.744 201.604 866.19 209.377C871.093 200.767 876.414 193.532 882.154 187.673ZM978.955 183.726C982.064 188.868 983.618 194.548 983.618 200.767C983.618 210.453 980.27 219.123 973.574 226.776C966.877 234.309 958.985 238.076 949.896 238.076C942.961 238.076 937.52 236.103 933.574 232.157C929.747 228.091 927.834 222.531 927.834 215.475C927.834 204.115 932.258 193.951 941.107 184.982C949.956 175.894 959.882 171.35 970.883 171.35C972.916 171.35 974.351 171.409 975.188 171.529L975.726 177.448C966.16 177.448 958.207 180.199 951.87 185.699C945.532 191.2 942.363 198.256 942.363 206.865C942.363 212.007 943.618 216.193 946.13 219.421C948.641 222.531 952.288 224.085 957.071 224.085C961.974 224.085 965.861 221.933 968.731 217.628C971.601 213.323 973.036 208.3 973.036 202.56C973.036 196.701 971.899 191.38 969.627 186.596L978.955 183.726ZM1029.19 216.91L1033.14 221.395C1030.15 226.058 1026.5 229.706 1022.19 232.336C1018.01 234.967 1013.76 236.283 1009.46 236.283C1005.15 236.283 1001.74 235.087 999.234 232.695C996.722 230.184 995.467 226.776 995.467 222.471C995.467 212.426 999.234 198.554 1006.77 180.856C1000.67 181.813 994.57 183.248 988.471 185.161L987.216 178.166L987.036 177.986C993.015 175.475 1000.85 173.442 1010.53 171.888C1011.49 170.094 1013.64 165.729 1016.99 158.794C1023.69 145.042 1028.47 136.133 1031.34 132.067L1039.05 135.116C1037.86 137.747 1035.77 142.172 1032.78 148.39C1029.79 154.489 1026.44 161.424 1022.73 169.197C1028.11 168.838 1032.36 168.659 1035.47 168.659C1038.58 168.659 1040.97 169.137 1042.64 170.094V177.807C1040.97 177.448 1038.52 177.269 1035.29 177.269C1032.18 177.269 1026.56 177.807 1018.43 178.883C1011.37 194.668 1007.84 206.148 1007.84 213.323C1007.84 216.073 1008.68 218.345 1010.35 220.139C1012.15 221.933 1014.48 222.83 1017.35 222.83C1020.34 222.83 1024.29 220.856 1029.19 216.91Z" fill="black"/>
</svg>
